<svg xmlns="http://www.w3.org/2000/svg" viewBox="0 0 953.11 152"><defs><style>.a{fill:#0080ff;}.b{fill:#ff3fb9;}</style></defs><title>projectasahi_logo</title><path class="a" d="M215.85,437.16h24.31c16.4,0,29,5.8,29,23.3,0,16.9-12.7,24.5-28.6,24.5h-9.9v26.3H215.85Zm23.71,36.1c10.2,0,15.1-4.3,15.1-12.8s-5.4-11.5-15.6-11.5h-8.4v24.3Z" transform="translate(-42.03 -392.5)"/><path class="a" d="M281.35,455.26h12l1.1,9.9h.3c4.1-7.3,10.1-11.3,15.91-11.3a15.84,15.84,0,0,1,6.6,1.2l-2.5,12.7a18.71,18.71,0,0,0-5.9-.9c-4.4,0-9.71,2.9-12.81,11v33.4h-14.7Z" transform="translate(-42.03 -392.5)"/><path class="a" d="M320.25,483.26c0-18.6,12.9-29.4,26.9-29.4s26.91,10.8,26.91,29.4-12.9,29.4-26.91,29.4S320.25,501.86,320.25,483.26Zm38.81,0c0-10.5-4.31-17.4-11.91-17.4s-11.9,6.9-11.9,17.4,4.3,17.4,11.9,17.4S359.06,493.86,359.06,483.26Z" transform="translate(-42.03 -392.5)"/><path class="a" d="M373.05,532.66l2.6-10.9a14.49,14.49,0,0,0,4.7.8c4.7,0,6.1-3.2,6.1-9.5v-57.8h14.7v57.4c0,12-4.6,21.5-18.7,21.5A26.53,26.53,0,0,1,373.05,532.66Zm12.2-94.5c0-4.8,3.5-8,8.5-8s8.6,3.2,8.6,8-3.5,8.1-8.6,8.1S385.25,443.06,385.25,438.16Z" transform="translate(-42.03 -392.5)"/><path class="a" d="M413.45,483.26c0-18.1,12.8-29.4,26.1-29.4,15.4,0,23.41,11.3,23.41,26.7a27.06,27.06,0,0,1-.71,6.8h-34.5c1.2,9.2,7.2,14,15.5,14a23.08,23.08,0,0,0,12.6-3.9l5,9a35.25,35.25,0,0,1-19.5,6.2C425.65,512.66,413.45,501.76,413.45,483.26Zm36.9-5.7c0-7.5-3.4-12.3-10.6-12.3-5.9,0-11.1,4.2-12.2,12.3Z" transform="translate(-42.03 -392.5)"/><path class="a" d="M471.55,483.26c0-18.6,13.4-29.4,28.6-29.4a24.53,24.53,0,0,1,16.31,6.2l-7,9.5c-2.8-2.4-5.4-3.7-8.5-3.7-8.6,0-14.4,6.9-14.4,17.4s5.9,17.4,13.9,17.4c4,0,7.8-1.9,10.9-4.5l5.9,9.7a28.22,28.22,0,0,1-18.4,6.8C483.35,512.66,471.55,501.86,471.55,483.26Z" transform="translate(-42.03 -392.5)"/><path class="a" d="M528.65,491.66v-24.8h-7.9V456l8.7-.7,1.7-15.1h12.2v15.1h13.8v11.6h-13.8v24.8c0,6.4,2.6,9.4,7.6,9.4a16.36,16.36,0,0,0,5.5-1.2l2.4,10.7a36.19,36.19,0,0,1-11.8,2.1C533.75,512.66,528.65,504.16,528.65,491.66Z" transform="translate(-42.03 -392.5)"/><path class="b" d="M584,437.16h17.4l23.81,74.1H609.65l-5.2-19h-24l-5.2,19h-15Zm-.3,43.6h17.6l-2.2-8.1c-2.3-7.7-4.3-16.2-6.4-24.2h-.5c-1.9,8.1-4.1,16.5-6.3,24.2Z" transform="translate(-42.03 -392.5)"/><path class="b" d="M629.25,504.76l6.7-9.2c5,3.9,9.8,6.1,15,6.1,5.6,0,8.1-2.4,8.1-5.9,0-4.2-5.8-6.1-11.7-8.4-7.1-2.7-15-7-15-16.4,0-10,8.1-17.1,20.9-17.1,8.1,0,14.4,3.4,19,6.9l-6.6,8.9c-4-2.9-7.9-4.8-12-4.8-5.1,0-7.5,2.2-7.5,5.4,0,4.1,5.2,5.6,11.1,7.8,7.4,2.8,15.6,6.5,15.6,16.9,0,9.8-7.7,17.7-22.3,17.7A35.52,35.52,0,0,1,629.25,504.76Z" transform="translate(-42.03 -392.5)"/><path class="b" d="M681.25,496.06c0-12,9.7-18.3,32.3-20.7-.3-5.5-2.7-9.7-9.6-9.7-5.2,0-10.2,2.3-15.4,5.3l-5.3-9.7c6.6-4.1,14.6-7.4,23.4-7.4,14.2,0,21.5,8.5,21.5,24.7v32.7h-12l-1-6h-.4c-4.9,4.2-10.5,7.4-16.9,7.4C687.85,512.66,681.25,505.56,681.25,496.06Zm32.3-.4v-11.3c-13.7,1.7-18.3,5.5-18.3,10.5,0,4.4,3.1,6.3,7.4,6.3S710,499.16,713.55,495.66Z" transform="translate(-42.03 -392.5)"/><path class="b" d="M743.15,431.46h14.7v20.1l-.7,10.5c4.5-4.2,10-8.2,17.6-8.2,12.1,0,17.3,8.4,17.3,22.5v34.9h-14.7v-33.1c0-8.7-2.4-11.7-7.9-11.7-4.6,0-7.5,2.2-11.6,6.3v38.5h-14.7Z" transform="translate(-42.03 -392.5)"/><path class="b" d="M806,438.16c0-4.8,3.5-8,8.6-8s8.5,3.2,8.5,8-3.5,8.1-8.5,8.1S806,443.06,806,438.16Zm1.2,17.1h14.7v56h-14.7Z" transform="translate(-42.03 -392.5)"/><polygon class="a" points="87.47 0 0 151.5 174.94 151.5 87.47 0"/><polygon class="b" points="953.11 0.5 778.17 0.5 865.64 152 953.11 0.5"/></svg>