<?xml version="1.0" encoding="utf-8"?>
<!-- Generator: Adobe Illustrator 24.1.1, SVG Export Plug-In . SVG Version: 6.00 Build 0)  -->
<svg version="1.1" id="图层_1" xmlns="http://www.w3.org/2000/svg" xmlns:xlink="http://www.w3.org/1999/xlink" x="0px" y="0px"
	 viewBox="0 0 1000 1000" style="enable-background:new 0 0 1000 1000;" xml:space="preserve">
<style type="text/css">
	.st0{fill:#FF3FB9;stroke:#000000;stroke-miterlimit:10;}
	.st1{fill:none;}
	.st2{fill:#FFFFFF;}
</style>
<path class="st0" d="M761.5,795.5h-492c-39.76,0-72-32.24-72-72v-424c0-39.76,32.24-72,72-72h492c39.76,0,72,32.24,72,72v424
	C833.5,763.26,801.26,795.5,761.5,795.5z"/>
<g>
	<path class="st1" d="M315,312h400v400H315V312z"/>
	<path class="st2" d="M492.78,423.11h44.44v44.44h-44.44V423.11z M492.78,489.78h44.44v111.11h-44.44V489.78z M514.05,354.3
		c-92,0-166.67,74.67-166.67,166.67s74.67,166.67,166.67,166.67s166.67-74.67,166.67-166.67S606.05,354.3,514.05,354.3z
		 M514.05,654.3c-73.5,0-133.33-59.83-133.33-133.33s59.83-133.33,133.33-133.33s133.33,59.83,133.33,133.33
		S587.55,654.3,514.05,654.3z"/>
</g>
</svg>
